# xmcd
#
# Track frame offsets: 
#        150
#        11587
#        27232
#        35167
#        43310
#        57902
#        67430
#        75067
#        83990
#        91672
#        100597
#        109557
#        120860
#        133372
#        143537
#        150987
#        156620
#        162442
#        168842
#        175910
#        183007
#        190422
#        197587
#        205070
#        212165
#        220122
#        228670
#        237410
#        249750
#        258990
#
# Disc length: 3545 seconds
#
# Revision: 4
# Processed by: cddbd v1.5.2PL0 Copyright (c) Steve Scherf et al.
# Submitted via: ExactAudioCopyFreeDBPlugin 1.0
#
DISCID=930dd71e
DTITLE=D.C. 〜ダ・カーポ〜 - brillante -original sound track Vol.2-
DYEAR=2004
DGENRE=Soundtrack
TTITLE0=愛しい存在
TTITLE1=兄妹なんだから・・・
TTITLE2=恋への推移
TTITLE3=幸せのひととき
TTITLE4=さくらと純一の約束
TTITLE5=崩れていく関係
TTITLE6=真実の告白
TTITLE7=狂い散る枯れない桜
TTITLE8=過去の記憶
TTITLE9=自分を責めて・・・
TTITLE10=さくらの決意
TTITLE11=不安
TTITLE12=救われることり
TTITLE13=美春の告白
TTITLE14=新しい朝
TTITLE15=謎のポエマー
TTITLE16=見えない影
TTITLE17=サスペンス
TTITLE18=金髪の美少年
TTITLE19=文化祭
TTITLE20=引っ張り出そう♪
TTITLE21=外に出られない
TTITLE22=訳あっての恋人
TTITLE23=うたまるマリンバ
TTITLE24=うたまるリズム
TTITLE25=指輪を買ってあげる
TTITLE26=祖母との想い出
TTITLE27=片思いの少女達
TTITLE28=枯れない桜の謎
TTITLE29=存在[TV ver.]
EXTD=YEAR: 2004
EXTT0=
EXTT1=
EXTT2=
EXTT3=
EXTT4=
EXTT5=
EXTT6=
EXTT7=
EXTT8=
EXTT9=
EXTT10=
EXTT11=
EXTT12=
EXTT13=
EXTT14=
EXTT15=
EXTT16=
EXTT17=
EXTT18=
EXTT19=
EXTT20=
EXTT21=
EXTT22=
EXTT23=
EXTT24=
EXTT25=
EXTT26=
EXTT27=
EXTT28=
EXTT29=
PLAYORDER=
